<svg width="180" height="69" viewBox="0 0 180 69" fill="none" xmlns="http://www.w3.org/2000/svg">
<path d="M114.513 52.1974C116.078 53.2834 118.245 52.9017 119.169 51.2355C121.67 46.7278 123.136 41.7032 123.44 36.5282C123.813 30.2016 122.436 23.8947 119.46 18.2993C116.484 12.704 112.024 8.03653 106.57 4.80903C101.116 1.58153 94.8779 -0.0812819 88.5409 0.00305494C82.2039 0.0873918 76.0126 1.91561 70.6463 5.28712C65.28 8.65863 60.9461 13.4431 58.12 19.1157C55.294 24.7882 54.085 31.1296 54.6258 37.444C55.0682 42.6091 56.6674 47.5929 59.287 52.0325C60.2553 53.6735 62.4311 53.9974 63.9672 52.8701C65.5033 51.7429 65.8133 49.5921 64.8864 47.9274C62.994 44.5289 61.8348 40.7567 61.5007 36.8552C61.068 31.8037 62.0352 26.7306 64.296 22.1926C66.5569 17.6545 70.024 13.8269 74.3171 11.1297C78.6101 8.43249 83.5631 6.96991 88.6327 6.90244C93.7023 6.83497 98.6925 8.16522 103.056 10.7472C107.419 13.3292 110.987 17.0632 113.368 21.5395C115.749 26.0157 116.85 31.0613 116.552 36.1226C116.322 40.0316 115.264 43.8333 113.462 47.2809C112.58 48.9697 112.947 51.1114 114.513 52.1974Z" fill="#EEEEEE"/>
<path d="M114.513 52.1974C116.078 53.2834 118.245 52.9017 119.169 51.2355C121.67 46.7278 123.136 41.7032 123.44 36.5282C123.813 30.2016 122.436 23.8947 119.46 18.2993C116.484 12.704 112.024 8.03653 106.57 4.80903C101.116 1.58153 94.8779 -0.0812819 88.5409 0.00305494C82.2039 0.0873918 76.0126 1.91561 70.6463 5.28712C65.28 8.65863 60.9461 13.4431 58.12 19.1157C55.294 24.7882 54.085 31.1296 54.6258 37.444C55.0682 42.6091 56.6674 47.5929 59.287 52.0325C60.2553 53.6735 62.4311 53.9974 63.9672 52.8701C65.5033 51.7429 65.8133 49.5921 64.8864 47.9274C62.994 44.5289 61.8348 40.7567 61.5007 36.8552C61.068 31.8037 62.0352 26.7306 64.296 22.1926C66.5569 17.6545 70.024 13.8269 74.3171 11.1297C78.6101 8.43249 83.5631 6.96991 88.6327 6.90244C93.7023 6.83497 98.6925 8.16522 103.056 10.7472C107.419 13.3292 110.987 17.0632 113.368 21.5395C115.749 26.0157 116.85 31.0613 116.552 36.1226C116.322 40.0316 115.264 43.8333 113.462 47.2809C112.58 48.9697 112.947 51.1114 114.513 52.1974Z" fill="#EEEEEE"/>
<path d="M105.358 8.10833C106.362 6.48881 105.869 4.34489 104.157 3.50777C98.0395 0.51584 91.1467 -0.610106 84.348 0.315073C76.4052 1.39595 69.0867 5.20892 63.6496 11.099C58.2124 16.9892 54.996 24.5888 54.5528 32.5925C54.1734 39.4433 55.8461 46.2242 59.317 52.0833C60.2881 53.7227 62.4646 54.043 63.9988 52.9131C65.533 51.7831 65.8392 49.6318 64.9094 47.9687C62.3668 43.4209 61.1516 38.2231 61.4422 32.974C61.7968 26.571 64.3699 20.4913 68.7196 15.7792C73.0694 11.0671 78.9242 8.01676 85.2784 7.15206C90.4876 6.44318 95.7658 7.23949 100.502 9.41086C102.234 10.2049 104.354 9.72786 105.358 8.10833Z" fill="url(#paint0_linear_954_10018)"/>
<path d="M105.358 8.10833C106.362 6.48881 105.869 4.34489 104.157 3.50777C98.0395 0.51584 91.1467 -0.610106 84.348 0.315073C76.4052 1.39595 69.0867 5.20892 63.6496 11.099C58.2124 16.9892 54.996 24.5888 54.5528 32.5925C54.1734 39.4433 55.8461 46.2242 59.317 52.0833C60.2881 53.7227 62.4646 54.043 63.9988 52.9131C65.533 51.7831 65.8392 49.6318 64.9094 47.9687C62.3668 43.4209 61.1516 38.2231 61.4422 32.974C61.7968 26.571 64.3699 20.4913 68.7196 15.7792C73.0694 11.0671 78.9242 8.01676 85.2784 7.15206C90.4876 6.44318 95.7658 7.23949 100.502 9.41086C102.234 10.2049 104.354 9.72786 105.358 8.10833Z" fill="url(#paint1_linear_954_10018)"/>
<path d="M89.5078 10.9082V13.6986" stroke="#D9D9D9" stroke-width="2" stroke-linecap="round"/>
<path d="M107.012 18.4648L106.25 19.2269" stroke="#D9D9D9" stroke-width="2" stroke-linecap="round"/>
<path d="M68.1855 23.2891L70.2644 24.4893" stroke="#D9D9D9" stroke-width="2" stroke-linecap="round"/>
<path d="M77.1602 14.3145L77.699 15.2478" stroke="#D9D9D9" stroke-width="2" stroke-linecap="round"/>
<path d="M65.1543 35.7676L66.169 35.7676" stroke="#D9D9D9" stroke-width="2" stroke-linecap="round"/>
<path d="M65.1543 35.7676L66.169 35.7676" stroke="#D9D9D9" stroke-width="2" stroke-linecap="round"/>
<path d="M66.2441 42.1484L67.2852 41.8695" stroke="#D9D9D9" stroke-width="2" stroke-linecap="round"/>
<path d="M83.0742 11.8652L83.3532 12.9063" stroke="#D9D9D9" stroke-width="2" stroke-linecap="round"/>
<path d="M101.934 14.5684L101.395 15.5017" stroke="#D9D9D9" stroke-width="2" stroke-linecap="round"/>
<path d="M65.9902 29.457L67.0313 29.736" stroke="#D9D9D9" stroke-width="2" stroke-linecap="round"/>
<path d="M96.2734 11.8652L95.9945 12.9063" stroke="#D9D9D9" stroke-width="2" stroke-linecap="round"/>
<path d="M110.654 23.543L108.575 24.7432" stroke="#D9D9D9" stroke-width="2" stroke-linecap="round"/>
<path d="M72.082 18.2109L72.8441 18.973" stroke="#D9D9D9" stroke-width="2" stroke-linecap="round"/>
<path d="M107.814 46.3555L109.893 47.5557" stroke="#D9D9D9" stroke-width="2" stroke-linecap="round"/>
<path d="M112.084 35.7676L113.099 35.7676" stroke="#D9D9D9" stroke-width="2" stroke-linecap="round"/>
<path d="M111.545 29.8242L112.586 29.5453" stroke="#D9D9D9" stroke-width="2" stroke-linecap="round"/>
<path d="M111.293 41.5273L112.334 41.8063" stroke="#D9D9D9" stroke-width="2" stroke-linecap="round"/>
<path d="M71.0254 46.6094L68.9463 47.8097" stroke="#D9D9D9" stroke-width="2" stroke-linecap="round"/>
<path d="M89.5078 10.9082V13.6986" stroke="#D9D9D9" stroke-width="2" stroke-linecap="round"/>
<path d="M107.012 18.4648L106.25 19.2269" stroke="#D9D9D9" stroke-width="2" stroke-linecap="round"/>
<path d="M68.1855 23.2891L70.2644 24.4893" stroke="#D9D9D9" stroke-width="2" stroke-linecap="round"/>
<path d="M77.1602 14.3145L77.699 15.2478" stroke="#D9D9D9" stroke-width="2" stroke-linecap="round"/>
<path d="M65.1543 35.7676L66.169 35.7676" stroke="#D9D9D9" stroke-width="2" stroke-linecap="round"/>
<path d="M65.1543 35.7676L66.169 35.7676" stroke="#D9D9D9" stroke-width="2" stroke-linecap="round"/>
<path d="M66.2441 42.1484L67.2852 41.8695" stroke="#D9D9D9" stroke-width="2" stroke-linecap="round"/>
<path d="M83.0742 11.8652L83.3532 12.9063" stroke="#D9D9D9" stroke-width="2" stroke-linecap="round"/>
<path d="M101.934 14.5684L101.395 15.5017" stroke="#D9D9D9" stroke-width="2" stroke-linecap="round"/>
<path d="M65.9902 29.457L67.0313 29.736" stroke="#D9D9D9" stroke-width="2" stroke-linecap="round"/>
<path d="M96.2734 11.8652L95.9945 12.9063" stroke="#D9D9D9" stroke-width="2" stroke-linecap="round"/>
<path d="M110.654 23.543L108.575 24.7432" stroke="#D9D9D9" stroke-width="2" stroke-linecap="round"/>
<path d="M72.082 18.2109L72.8441 18.973" stroke="#D9D9D9" stroke-width="2" stroke-linecap="round"/>
<path d="M107.814 46.3555L109.893 47.5557" stroke="#D9D9D9" stroke-width="2" stroke-linecap="round"/>
<path d="M112.084 35.7676L113.099 35.7676" stroke="#D9D9D9" stroke-width="2" stroke-linecap="round"/>
<path d="M111.545 29.8242L112.586 29.5453" stroke="#D9D9D9" stroke-width="2" stroke-linecap="round"/>
<path d="M111.293 41.5273L112.334 41.8063" stroke="#D9D9D9" stroke-width="2" stroke-linecap="round"/>
<path d="M71.0254 46.6094L68.9463 47.8097" stroke="#D9D9D9" stroke-width="2" stroke-linecap="round"/>
<ellipse cx="89.5" cy="34.5" rx="3" ry="3.5" fill="#D9D9D9"/>
<ellipse cx="89.5" cy="34.5" rx="3" ry="3.5" fill="#D9D9D9"/>
<path d="M100.012 16.6778C100.171 16.4429 100.487 16.3748 100.728 16.5234C100.97 16.672 101.052 16.9845 100.915 17.2327L90.8109 35.4414C90.4085 36.1666 89.4823 36.4096 88.7756 35.9754C88.0689 35.5412 87.8673 34.6051 88.3325 33.9184L100.012 16.6778Z" fill="#39056C"/>
<path d="M100.012 16.6778C100.171 16.4429 100.487 16.3748 100.728 16.5234C100.97 16.672 101.052 16.9845 100.915 17.2327L90.8109 35.4414C90.4085 36.1666 89.4823 36.4096 88.7756 35.9754C88.0689 35.5412 87.8673 34.6051 88.3325 33.9184L100.012 16.6778Z" fill="#39056C"/>
<circle cx="90" cy="34.5" r="0.5" fill="white"/>
<circle cx="90" cy="34.5" r="0.5" fill="white"/>
<path d="M125.732 54V46.3H128.262C128.864 46.3 129.359 46.399 129.747 46.597C130.136 46.795 130.422 47.0627 130.605 47.4C130.796 47.7373 130.891 48.1187 130.891 48.544C130.891 48.962 130.8 49.3397 130.616 49.677C130.433 50.0143 130.147 50.2857 129.758 50.491C129.37 50.689 128.871 50.788 128.262 50.788H126.656V54H125.732ZM126.656 50.007H128.24C128.856 50.007 129.293 49.8787 129.549 49.622C129.813 49.358 129.945 48.9987 129.945 48.544C129.945 48.082 129.813 47.7227 129.549 47.466C129.293 47.202 128.856 47.07 128.24 47.07H126.656V50.007ZM132.542 54V46.3H135.028C135.63 46.3 136.121 46.399 136.502 46.597C136.884 46.795 137.166 47.0663 137.349 47.411C137.533 47.7557 137.624 48.137 137.624 48.555C137.624 49.039 137.492 49.4753 137.228 49.864C136.972 50.2527 136.568 50.5277 136.018 50.689L137.701 54H136.612L135.05 50.821H134.984H133.466V54H132.542ZM133.466 50.095H134.962C135.556 50.095 135.989 49.952 136.26 49.666C136.532 49.38 136.667 49.0133 136.667 48.566C136.667 48.1113 136.532 47.752 136.26 47.488C135.996 47.2167 135.56 47.081 134.951 47.081H133.466V50.095ZM139.503 54V46.3H144.266V47.059H140.427V49.743H143.936V50.491H140.427V53.241H144.266V54H139.503ZM148.605 54.132C148.04 54.132 147.549 54.0293 147.131 53.824C146.713 53.6187 146.39 53.3327 146.163 52.966C145.936 52.5993 145.822 52.174 145.822 51.69H146.79C146.79 51.9907 146.86 52.2693 146.999 52.526C147.138 52.7753 147.34 52.977 147.604 53.131C147.875 53.2777 148.209 53.351 148.605 53.351C149.126 53.351 149.529 53.2263 149.815 52.977C150.101 52.7277 150.244 52.416 150.244 52.042C150.244 51.734 150.178 51.4883 150.046 51.305C149.914 51.1143 149.734 50.9603 149.507 50.843C149.287 50.7257 149.03 50.623 148.737 50.535C148.451 50.447 148.15 50.348 147.835 50.238C147.241 50.0327 146.801 49.7797 146.515 49.479C146.229 49.171 146.086 48.7713 146.086 48.28C146.079 47.8693 146.174 47.5063 146.372 47.191C146.57 46.8683 146.849 46.619 147.208 46.443C147.575 46.2597 148.007 46.168 148.506 46.168C148.997 46.168 149.423 46.2597 149.782 46.443C150.149 46.6263 150.431 46.8793 150.629 47.202C150.834 47.5247 150.941 47.8913 150.948 48.302H149.98C149.98 48.0893 149.925 47.8803 149.815 47.675C149.705 47.4623 149.536 47.29 149.309 47.158C149.089 47.026 148.81 46.96 148.473 46.96C148.055 46.9527 147.71 47.059 147.439 47.279C147.175 47.499 147.043 47.8033 147.043 48.192C147.043 48.522 147.135 48.775 147.318 48.951C147.509 49.127 147.773 49.2737 148.11 49.391C148.447 49.501 148.836 49.6293 149.276 49.776C149.643 49.908 149.973 50.062 150.266 50.238C150.559 50.414 150.787 50.6413 150.948 50.92C151.117 51.1987 151.201 51.5543 151.201 51.987C151.201 52.3537 151.106 52.702 150.915 53.032C150.724 53.3547 150.435 53.6187 150.046 53.824C149.665 54.0293 149.184 54.132 148.605 54.132ZM156.449 54.132C155.694 54.132 155.03 53.967 154.458 53.637C153.894 53.2997 153.45 52.8303 153.127 52.229C152.812 51.6277 152.654 50.9347 152.654 50.15C152.654 49.3653 152.812 48.676 153.127 48.082C153.45 47.4807 153.894 47.0113 154.458 46.674C155.03 46.3367 155.694 46.168 156.449 46.168C157.212 46.168 157.876 46.3367 158.44 46.674C159.012 47.0113 159.456 47.4807 159.771 48.082C160.087 48.676 160.244 49.3653 160.244 50.15C160.244 50.9347 160.087 51.6277 159.771 52.229C159.456 52.8303 159.012 53.2997 158.44 53.637C157.876 53.967 157.212 54.132 156.449 54.132ZM156.449 53.318C157.014 53.318 157.509 53.1933 157.934 52.944C158.367 52.6873 158.701 52.3243 158.935 51.855C159.177 51.3783 159.298 50.81 159.298 50.15C159.298 49.49 159.177 48.9253 158.935 48.456C158.701 47.9867 158.367 47.6273 157.934 47.378C157.509 47.1213 157.014 46.993 156.449 46.993C155.885 46.993 155.386 47.1213 154.953 47.378C154.528 47.6273 154.194 47.9867 153.952 48.456C153.718 48.9253 153.6 49.49 153.6 50.15C153.6 50.81 153.718 51.3783 153.952 51.855C154.194 52.3243 154.528 52.6873 154.953 52.944C155.386 53.1933 155.885 53.318 156.449 53.318ZM162.017 54V46.3H162.941V53.263H166.527V54H162.017ZM168.237 54V46.3H170.602C171.958 46.3 172.956 46.6447 173.594 47.334C174.239 48.0233 174.562 48.9693 174.562 50.172C174.562 51.3527 174.239 52.2877 173.594 52.977C172.956 53.659 171.958 54 170.602 54H168.237ZM169.161 53.23H170.58C171.328 53.23 171.922 53.109 172.362 52.867C172.809 52.6177 173.128 52.2657 173.319 51.811C173.509 51.349 173.605 50.8027 173.605 50.172C173.605 49.5267 173.509 48.973 173.319 48.511C173.128 48.049 172.809 47.6933 172.362 47.444C171.922 47.1947 171.328 47.07 170.58 47.07H169.161V53.23Z" fill="#474747"/>
<path d="M125.732 54V46.3H128.262C128.864 46.3 129.359 46.399 129.747 46.597C130.136 46.795 130.422 47.0627 130.605 47.4C130.796 47.7373 130.891 48.1187 130.891 48.544C130.891 48.962 130.8 49.3397 130.616 49.677C130.433 50.0143 130.147 50.2857 129.758 50.491C129.37 50.689 128.871 50.788 128.262 50.788H126.656V54H125.732ZM126.656 50.007H128.24C128.856 50.007 129.293 49.8787 129.549 49.622C129.813 49.358 129.945 48.9987 129.945 48.544C129.945 48.082 129.813 47.7227 129.549 47.466C129.293 47.202 128.856 47.07 128.24 47.07H126.656V50.007ZM132.542 54V46.3H135.028C135.63 46.3 136.121 46.399 136.502 46.597C136.884 46.795 137.166 47.0663 137.349 47.411C137.533 47.7557 137.624 48.137 137.624 48.555C137.624 49.039 137.492 49.4753 137.228 49.864C136.972 50.2527 136.568 50.5277 136.018 50.689L137.701 54H136.612L135.05 50.821H134.984H133.466V54H132.542ZM133.466 50.095H134.962C135.556 50.095 135.989 49.952 136.26 49.666C136.532 49.38 136.667 49.0133 136.667 48.566C136.667 48.1113 136.532 47.752 136.26 47.488C135.996 47.2167 135.56 47.081 134.951 47.081H133.466V50.095ZM139.503 54V46.3H144.266V47.059H140.427V49.743H143.936V50.491H140.427V53.241H144.266V54H139.503ZM148.605 54.132C148.04 54.132 147.549 54.0293 147.131 53.824C146.713 53.6187 146.39 53.3327 146.163 52.966C145.936 52.5993 145.822 52.174 145.822 51.69H146.79C146.79 51.9907 146.86 52.2693 146.999 52.526C147.138 52.7753 147.34 52.977 147.604 53.131C147.875 53.2777 148.209 53.351 148.605 53.351C149.126 53.351 149.529 53.2263 149.815 52.977C150.101 52.7277 150.244 52.416 150.244 52.042C150.244 51.734 150.178 51.4883 150.046 51.305C149.914 51.1143 149.734 50.9603 149.507 50.843C149.287 50.7257 149.03 50.623 148.737 50.535C148.451 50.447 148.15 50.348 147.835 50.238C147.241 50.0327 146.801 49.7797 146.515 49.479C146.229 49.171 146.086 48.7713 146.086 48.28C146.079 47.8693 146.174 47.5063 146.372 47.191C146.57 46.8683 146.849 46.619 147.208 46.443C147.575 46.2597 148.007 46.168 148.506 46.168C148.997 46.168 149.423 46.2597 149.782 46.443C150.149 46.6263 150.431 46.8793 150.629 47.202C150.834 47.5247 150.941 47.8913 150.948 48.302H149.98C149.98 48.0893 149.925 47.8803 149.815 47.675C149.705 47.4623 149.536 47.29 149.309 47.158C149.089 47.026 148.81 46.96 148.473 46.96C148.055 46.9527 147.71 47.059 147.439 47.279C147.175 47.499 147.043 47.8033 147.043 48.192C147.043 48.522 147.135 48.775 147.318 48.951C147.509 49.127 147.773 49.2737 148.11 49.391C148.447 49.501 148.836 49.6293 149.276 49.776C149.643 49.908 149.973 50.062 150.266 50.238C150.559 50.414 150.787 50.6413 150.948 50.92C151.117 51.1987 151.201 51.5543 151.201 51.987C151.201 52.3537 151.106 52.702 150.915 53.032C150.724 53.3547 150.435 53.6187 150.046 53.824C149.665 54.0293 149.184 54.132 148.605 54.132ZM156.449 54.132C155.694 54.132 155.03 53.967 154.458 53.637C153.894 53.2997 153.45 52.8303 153.127 52.229C152.812 51.6277 152.654 50.9347 152.654 50.15C152.654 49.3653 152.812 48.676 153.127 48.082C153.45 47.4807 153.894 47.0113 154.458 46.674C155.03 46.3367 155.694 46.168 156.449 46.168C157.212 46.168 157.876 46.3367 158.44 46.674C159.012 47.0113 159.456 47.4807 159.771 48.082C160.087 48.676 160.244 49.3653 160.244 50.15C160.244 50.9347 160.087 51.6277 159.771 52.229C159.456 52.8303 159.012 53.2997 158.44 53.637C157.876 53.967 157.212 54.132 156.449 54.132ZM156.449 53.318C157.014 53.318 157.509 53.1933 157.934 52.944C158.367 52.6873 158.701 52.3243 158.935 51.855C159.177 51.3783 159.298 50.81 159.298 50.15C159.298 49.49 159.177 48.9253 158.935 48.456C158.701 47.9867 158.367 47.6273 157.934 47.378C157.509 47.1213 157.014 46.993 156.449 46.993C155.885 46.993 155.386 47.1213 154.953 47.378C154.528 47.6273 154.194 47.9867 153.952 48.456C153.718 48.9253 153.6 49.49 153.6 50.15C153.6 50.81 153.718 51.3783 153.952 51.855C154.194 52.3243 154.528 52.6873 154.953 52.944C155.386 53.1933 155.885 53.318 156.449 53.318ZM162.017 54V46.3H162.941V53.263H166.527V54H162.017ZM168.237 54V46.3H170.602C171.958 46.3 172.956 46.6447 173.594 47.334C174.239 48.0233 174.562 48.9693 174.562 50.172C174.562 51.3527 174.239 52.2877 173.594 52.977C172.956 53.659 171.958 54 170.602 54H168.237ZM169.161 53.23H170.58C171.328 53.23 171.922 53.109 172.362 52.867C172.809 52.6177 173.128 52.2657 173.319 51.811C173.509 51.349 173.605 50.8027 173.605 50.172C173.605 49.5267 173.509 48.973 173.319 48.511C173.128 48.049 172.809 47.6933 172.362 47.444C171.922 47.1947 171.328 47.07 170.58 47.07H169.161V53.23Z" fill="#474747"/>
<path d="M18.5239 52V44.3H21.0099C21.6112 44.3 22.1026 44.399 22.4839 44.597C22.8652 44.795 23.1476 45.0663 23.3309 45.411C23.5142 45.7557 23.6059 46.137 23.6059 46.555C23.6059 47.039 23.4739 47.4753 23.2099 47.864C22.9532 48.2527 22.5499 48.5277 21.9999 48.689L23.6829 52H22.5939L21.0319 48.821H20.9659H19.4479V52H18.5239ZM19.4479 48.095H20.9439C21.5379 48.095 21.9706 47.952 22.2419 47.666C22.5132 47.38 22.6489 47.0133 22.6489 46.566C22.6489 46.1113 22.5132 45.752 22.2419 45.488C21.9779 45.2167 21.5416 45.081 20.9329 45.081H19.4479V48.095ZM25.4844 52V44.3H27.8494C29.2061 44.3 30.2034 44.6447 30.8414 45.334C31.4867 46.0233 31.8094 46.9693 31.8094 48.172C31.8094 49.3527 31.4867 50.2877 30.8414 50.977C30.2034 51.659 29.2061 52 27.8494 52H25.4844ZM26.4084 51.23H27.8274C28.5754 51.23 29.1694 51.109 29.6094 50.867C30.0567 50.6177 30.3757 50.2657 30.5664 49.811C30.7571 49.349 30.8524 48.8027 30.8524 48.172C30.8524 47.5267 30.7571 46.973 30.5664 46.511C30.3757 46.049 30.0567 45.6933 29.6094 45.444C29.1694 45.1947 28.5754 45.07 27.8274 45.07H26.4084V51.23ZM33.5836 52V44.3H36.0696C36.6709 44.3 37.1623 44.399 37.5436 44.597C37.9249 44.795 38.2073 45.0663 38.3906 45.411C38.5739 45.7557 38.6656 46.137 38.6656 46.555C38.6656 47.039 38.5336 47.4753 38.2696 47.864C38.0129 48.2527 37.6096 48.5277 37.0596 48.689L38.7426 52H37.6536L36.0916 48.821H36.0256H34.5076V52H33.5836ZM34.5076 48.095H36.0036C36.5976 48.095 37.0303 47.952 37.3016 47.666C37.5729 47.38 37.7086 47.0133 37.7086 46.566C37.7086 46.1113 37.5729 45.752 37.3016 45.488C37.0376 45.2167 36.6013 45.081 35.9926 45.081H34.5076V48.095Z" fill="#474747"/>
<path d="M18.5239 52V44.3H21.0099C21.6112 44.3 22.1026 44.399 22.4839 44.597C22.8652 44.795 23.1476 45.0663 23.3309 45.411C23.5142 45.7557 23.6059 46.137 23.6059 46.555C23.6059 47.039 23.4739 47.4753 23.2099 47.864C22.9532 48.2527 22.5499 48.5277 21.9999 48.689L23.6829 52H22.5939L21.0319 48.821H20.9659H19.4479V52H18.5239ZM19.4479 48.095H20.9439C21.5379 48.095 21.9706 47.952 22.2419 47.666C22.5132 47.38 22.6489 47.0133 22.6489 46.566C22.6489 46.1113 22.5132 45.752 22.2419 45.488C21.9779 45.2167 21.5416 45.081 20.9329 45.081H19.4479V48.095ZM25.4844 52V44.3H27.8494C29.2061 44.3 30.2034 44.6447 30.8414 45.334C31.4867 46.0233 31.8094 46.9693 31.8094 48.172C31.8094 49.3527 31.4867 50.2877 30.8414 50.977C30.2034 51.659 29.2061 52 27.8494 52H25.4844ZM26.4084 51.23H27.8274C28.5754 51.23 29.1694 51.109 29.6094 50.867C30.0567 50.6177 30.3757 50.2657 30.5664 49.811C30.7571 49.349 30.8524 48.8027 30.8524 48.172C30.8524 47.5267 30.7571 46.973 30.5664 46.511C30.3757 46.049 30.0567 45.6933 29.6094 45.444C29.1694 45.1947 28.5754 45.07 27.8274 45.07H26.4084V51.23ZM33.5836 52V44.3H36.0696C36.6709 44.3 37.1623 44.399 37.5436 44.597C37.9249 44.795 38.2073 45.0663 38.3906 45.411C38.5739 45.7557 38.6656 46.137 38.6656 46.555C38.6656 47.039 38.5336 47.4753 38.2696 47.864C38.0129 48.2527 37.6096 48.5277 37.0596 48.689L38.7426 52H37.6536L36.0916 48.821H36.0256H34.5076V52H33.5836ZM34.5076 48.095H36.0036C36.5976 48.095 37.0303 47.952 37.3016 47.666C37.5729 47.38 37.7086 47.0133 37.7086 46.566C37.7086 46.1113 37.5729 45.752 37.3016 45.488C37.0376 45.2167 36.6013 45.081 35.9926 45.081H34.5076V48.095Z" fill="#474747"/>
<defs>
<linearGradient id="paint0_linear_954_10018" x1="54.5" y1="37.1636" x2="123.5" y2="34.5" gradientUnits="userSpaceOnUse">
<stop stop-color="#2196F3"/>
<stop offset="1" stop-color="#D3EAFD"/>
</linearGradient>
<linearGradient id="paint1_linear_954_10018" x1="54.5" y1="37.1636" x2="123.5" y2="34.5" gradientUnits="userSpaceOnUse">
<stop stop-color="#2F2F2F"/>
<stop offset="1" stop-color="#990021"/>
</linearGradient>
</defs>
</svg>
