<svg width="51" height="40" viewBox="0 0 51 40" fill="none" xmlns="http://www.w3.org/2000/svg">
<path d="M25.5078 1.9082V4.69864" stroke="#D9D9D9" stroke-width="2" stroke-linecap="round"/>
<path d="M43.0117 9.46484L42.2496 10.2269" stroke="#D9D9D9" stroke-width="2" stroke-linecap="round"/>
<path d="M4.18555 14.2891L6.26442 15.4893" stroke="#D9D9D9" stroke-width="2" stroke-linecap="round"/>
<path d="M13.1602 5.31445L13.699 6.24783" stroke="#D9D9D9" stroke-width="2" stroke-linecap="round"/>
<path d="M1.1543 26.7676L2.169 26.7676" stroke="#D9D9D9" stroke-width="2" stroke-linecap="round"/>
<path d="M1.1543 26.7676L2.169 26.7676" stroke="#D9D9D9" stroke-width="2" stroke-linecap="round"/>
<path d="M2.24414 33.1484L3.28518 32.8695" stroke="#D9D9D9" stroke-width="2" stroke-linecap="round"/>
<path d="M19.0742 2.86523L19.3532 3.90628" stroke="#D9D9D9" stroke-width="2" stroke-linecap="round"/>
<path d="M37.9336 5.56836L37.3947 6.50173" stroke="#D9D9D9" stroke-width="2" stroke-linecap="round"/>
<path d="M1.99023 20.457L3.03128 20.736" stroke="#D9D9D9" stroke-width="2" stroke-linecap="round"/>
<path d="M32.2734 2.86523L31.9945 3.90628" stroke="#D9D9D9" stroke-width="2" stroke-linecap="round"/>
<path d="M46.6543 14.543L44.5754 15.7432" stroke="#D9D9D9" stroke-width="2" stroke-linecap="round"/>
<path d="M8.08203 9.21094L8.84413 9.97303" stroke="#D9D9D9" stroke-width="2" stroke-linecap="round"/>
<path d="M43.8145 37.3555L45.8933 38.5557" stroke="#D9D9D9" stroke-width="2" stroke-linecap="round"/>
<path d="M48.084 26.7676L49.0987 26.7676" stroke="#D9D9D9" stroke-width="2" stroke-linecap="round"/>
<path d="M47.5449 20.8242L48.586 20.5453" stroke="#D9D9D9" stroke-width="2" stroke-linecap="round"/>
<path d="M47.293 32.5273L48.334 32.8063" stroke="#D9D9D9" stroke-width="2" stroke-linecap="round"/>
<path d="M7.02539 37.6094L4.9463 38.8097" stroke="#D9D9D9" stroke-width="2" stroke-linecap="round"/>
</svg>
